<svg width="101" height="170" viewBox="0 0 101 170" fill="none" xmlns="http://www.w3.org/2000/svg">
<g id="Crown">
<g id="Group">
<path id="Vector" d="M15.4881 155.26C-4.00158 135.77 -4.00158 104.061 15.4881 84.5716C34.9779 65.0819 66.6866 65.0819 86.1763 84.5716C105.666 104.061 105.666 135.77 86.1763 155.26C66.6866 174.75 34.9779 174.75 15.4881 155.26ZM83.8207 86.9273C65.6296 68.7362 36.0348 68.7362 17.8485 86.9273C-0.342528 105.118 -0.342528 134.713 17.8485 152.899C36.0396 171.09 65.6344 171.09 83.8207 152.899C102.012 134.708 102.012 105.114 83.8207 86.9273Z" fill="white"/>
<g id="Group_2">
<path id="Vector_2" d="M84.3638 109.313C84.1884 109.138 84.0462 108.915 83.9657 108.668C82.2357 103.55 79.4108 99.0136 75.5716 95.1744C71.7372 91.34 67.1965 88.5151 62.0776 86.7804C61.3998 86.5481 60.9448 85.9178 60.9448 85.2021V73.0542C60.9448 72.5423 61.1818 72.0588 61.5847 71.7413C61.9923 71.4237 62.5184 71.3147 63.0113 71.4379C71.7609 73.6277 79.771 78.1683 86.1696 84.5717C92.5682 90.975 97.1089 98.9804 99.2987 107.73C99.4219 108.228 99.3081 108.754 98.9953 109.161C98.6777 109.569 98.1943 109.801 97.6824 109.801H85.5345C85.0795 109.801 84.6624 109.616 84.3543 109.308L84.3638 109.313ZM77.9272 92.8188C81.8422 96.7338 84.7951 101.322 86.7194 106.469H95.5069C93.2982 99.1131 89.2836 92.3922 83.8187 86.9273C78.3538 81.4624 71.6329 77.4479 64.2816 75.2439V84.0314C69.4289 85.9509 74.017 88.9038 77.932 92.8235L77.9272 92.8188Z" fill="white"/>
<path id="Vector_3" d="M15.4867 155.26C9.0881 148.861 4.5427 140.851 2.35295 132.101C2.22971 131.604 2.34347 131.078 2.6563 130.675C2.97386 130.267 3.45729 130.035 3.96918 130.035H16.1171C16.8328 130.035 17.4679 130.49 17.6954 131.168C19.4254 136.287 22.2503 140.823 26.0894 144.662C29.9239 148.496 34.4646 151.321 39.5835 153.056C40.2612 153.283 40.7162 153.918 40.7162 154.634V166.782C40.7162 167.294 40.4792 167.777 40.0764 168.095C39.6687 168.412 39.1426 168.521 38.645 168.398C29.8954 166.208 21.8901 161.668 15.4867 155.269V155.26ZM6.15421 133.362C8.36292 140.718 12.3774 147.439 17.8423 152.904C23.3072 158.369 30.0282 162.384 37.3842 164.592V155.805C32.2369 153.885 27.6488 150.932 23.7338 147.017C19.8188 143.102 16.866 138.514 14.9416 133.367H6.15421V133.362Z" fill="white"/>
<path id="Vector_4" d="M61.433 167.953C61.1202 167.64 60.9448 167.218 60.9448 166.773V154.625C60.9448 153.909 61.3998 153.274 62.0776 153.046C67.1965 151.316 71.7324 148.492 75.5716 144.652C79.4108 140.813 82.2309 136.277 83.9656 131.158C84.1931 130.481 84.8283 130.026 85.544 130.026H97.6919C98.2038 130.026 98.6872 130.263 99.0048 130.665C99.3223 131.068 99.4314 131.599 99.3081 132.092C97.1136 140.842 92.573 148.847 86.1743 155.25C79.7757 161.654 71.7656 166.194 63.0161 168.384C62.5184 168.507 61.9923 168.394 61.5894 168.081C61.5373 168.033 61.4852 167.991 61.4378 167.943L61.433 167.953ZM64.2769 155.8V164.588C71.6329 162.379 78.3538 158.364 83.8187 152.9C89.2836 147.435 93.2934 140.714 95.5069 133.358H86.7194C84.7998 138.505 81.847 143.088 77.9272 147.008C74.0122 150.923 69.4242 153.881 64.2769 155.8Z" fill="white"/>
<path id="Vector_5" d="M2.78974 109.313C2.74234 109.266 2.69496 109.213 2.65704 109.161C2.33948 108.758 2.23046 108.228 2.35369 107.73C4.54344 98.9804 9.0841 90.9703 15.4875 84.5717C21.8908 78.173 29.8962 73.6277 38.6457 71.4379C39.1434 71.3147 39.6695 71.4284 40.0724 71.7412C40.4752 72.0588 40.7123 72.5423 40.7123 73.0542V85.2021C40.7123 85.9178 40.2572 86.5529 39.5795 86.7804C34.4606 88.5104 29.9246 91.3352 26.0854 95.1744C22.251 99.0088 19.4262 103.549 17.6914 108.668C17.4639 109.346 16.8288 109.801 16.1131 109.801H3.96521C3.51967 109.801 3.09307 109.626 2.78499 109.318L2.78974 109.313ZM37.3802 75.2439C30.0242 77.4526 23.3032 81.4672 17.8383 86.9321C12.3734 92.3969 8.36366 99.1179 6.15021 106.474H14.9376C16.8572 101.327 19.8101 96.7433 23.7298 92.8235C27.6448 88.9085 32.2329 85.9557 37.3802 84.0313V75.2439Z" fill="white"/>
</g>
<path id="Vector_6" d="M77.9314 92.8188C62.9918 77.8792 38.6771 77.8744 23.7375 92.8188C8.79315 107.763 8.79789 132.073 23.7375 147.013C38.6771 161.952 62.9871 161.957 77.9314 147.013C92.8757 132.068 92.871 107.758 77.9314 92.8188Z" fill="white"/>
<g id="Group_3">
<path id="Vector_7" d="M64.6503 133.593L37.1226 133.776C35.963 133.784 35.0292 134.73 35.0369 135.889L35.0434 136.871C35.0511 138.03 35.9974 138.964 37.157 138.956L64.6846 138.774C65.8442 138.766 66.7781 137.82 66.7704 136.66L66.7639 135.679C66.7562 134.519 65.8099 133.586 64.6503 133.593Z" fill="#110A1D"/>
<path id="Vector_8" d="M40.8732 116.977C40.5746 116.977 40.2713 116.911 39.9964 116.778L37.8492 115.74C36.9155 115.285 36.4889 114.181 36.8776 113.219L37.8635 110.764C38.1668 110.015 38.8825 109.526 39.6883 109.522C40.0343 109.522 40.3755 109.607 40.6788 109.782L43.2383 111.242C43.717 111.512 44.063 111.982 44.1862 112.522C44.3095 113.062 44.2005 113.631 43.8876 114.086L42.4847 116.119C42.1197 116.65 41.513 116.973 40.8684 116.973L40.8732 116.977Z" fill="#110A1D"/>
<path id="Vector_9" d="M60.6919 116.845C60.0473 116.845 59.4359 116.537 59.0663 116.01L57.6775 114.053C57.3552 113.603 57.2415 113.034 57.3552 112.494C57.469 111.953 57.8102 111.479 58.2889 111.2L60.9289 109.65C61.2275 109.474 61.5688 109.38 61.9148 109.375C62.7206 109.37 63.4458 109.849 63.7586 110.593L64.7539 112.977C65.152 113.934 64.7397 115.048 63.8155 115.513L61.5688 116.636C61.2987 116.769 60.9953 116.845 60.6967 116.845H60.6919Z" fill="#110A1D"/>
<path id="Vector_10" d="M38.7106 131.936C37.502 131.945 36.4166 131.187 36.0043 130.049L31.4115 117.408C31.1176 117.551 30.8048 117.66 30.4872 117.74C30.1128 117.835 29.7336 117.882 29.3497 117.882C29.1269 117.882 28.9089 117.873 28.6956 117.845C26.302 117.541 24.4868 115.489 24.4725 113.072C24.4536 110.398 26.6148 108.209 29.288 108.19C31.9612 108.171 34.151 110.332 34.1652 113.005C34.1652 113.621 34.0609 114.214 33.8429 114.768C33.7244 115.072 33.5775 115.361 33.4069 115.636L42.1422 119.864L48.8252 110.18C48.5456 110.062 48.2754 109.915 48.0194 109.74C47.536 109.413 47.1141 109.005 46.7729 108.526C46.1946 107.711 45.8818 106.749 45.8771 105.753C45.8581 103.08 48.0194 100.891 50.6926 100.872C50.8111 100.872 50.9344 100.872 51.0529 100.881C53.4464 101.042 55.3802 102.962 55.5556 105.355C55.6362 106.488 55.3376 107.574 54.693 108.498C54.3517 108.981 53.9346 109.394 53.4559 109.721C53.2047 109.896 52.9345 110.043 52.6549 110.161L59.4564 119.745L68.0495 115.446C67.8883 115.138 67.7604 114.816 67.6656 114.479C67.5518 114.072 67.4902 113.645 67.4902 113.214C67.4902 113.019 67.4997 112.825 67.5186 112.636C67.7935 110.199 69.8506 108.351 72.301 108.337C74.9742 108.318 77.164 110.479 77.1782 113.152C77.1971 115.702 75.2159 117.845 72.6707 118.02L72.3674 118.029C71.8744 118.029 71.391 117.963 70.9218 117.821C70.6184 117.726 70.3245 117.608 70.0496 117.456L65.7365 129.85C65.3431 130.992 64.2624 131.76 63.0538 131.77L38.7106 131.931V131.936Z" fill="#110A1D"/>
</g>
</g>
<g id="Group_4">
<path id="Vector_11" d="M100.411 -0.959878V118.635C100.411 119.624 99.6098 120.415 98.6314 120.415C97.653 120.415 96.8516 119.614 96.8516 118.635V-0.959878C96.8516 -1.9487 97.653 -2.73975 98.6314 -2.73975C99.6098 -2.73975 100.411 -1.93829 100.411 -0.959878Z" fill="white"/>
</g>
<g id="Group_5">
<path id="Vector_12" d="M4.86833 -1.22013V118.375C4.86833 119.364 4.06691 120.155 3.08849 120.155C2.11008 120.155 1.30859 119.354 1.30859 118.375V-1.22013C1.30859 -2.20895 2.11008 -3 3.08849 -3C4.06691 -3 4.86833 -2.19854 4.86833 -1.22013Z" fill="white"/>
</g>
</g>
</svg>
