<svg width="100" height="100" viewBox="0 0 100 100" fill="none" xmlns="http://www.w3.org/2000/svg">
<g id="M">
<path id="Vector" d="M50.3967 99.8407C23.074 99.8407 0.851562 77.6078 0.851562 50.2956C0.851562 22.9833 23.0844 0.750488 50.3967 0.750488C77.709 0.750488 99.9418 22.9833 99.9418 50.2956C99.9418 77.6078 77.709 99.8407 50.3967 99.8407ZM50.3967 4.05001C24.8955 4.05001 4.15108 24.7944 4.15108 50.2956C4.15108 75.7967 24.8955 96.5411 50.3967 96.5411C75.8979 96.5411 96.6423 75.7967 96.6423 50.2956C96.6423 24.7944 75.8979 4.05001 50.3967 4.05001Z" fill="#478BF9"/>
<g id="Group">
<path id="Vector_2" d="M82.7174 14.9488L67.3792 30.2871L70.3968 33.3047L85.7351 17.9664L82.7174 14.9488Z" fill="#478BF9"/>
<path id="Vector_3" d="M29.9242 67.7406L14.5859 83.0789L17.6035 86.0964L32.9418 70.7582L29.9242 67.7406Z" fill="#478BF9"/>
<path id="Vector_4" d="M70.8616 67.7556L67.844 70.7732L83.1822 86.1114L86.1999 83.0938L70.8616 67.7556Z" fill="#478BF9"/>
<path id="Vector_5" d="M17.5999 14.487L14.5823 17.5046L29.9132 32.8356L32.9308 29.818L17.5999 14.487Z" fill="#478BF9"/>
</g>
<g id="Group_2">
<path id="Vector_6" d="M62.4808 51.6277C63.48 50.6285 63.48 49.0151 62.4808 48.0263L60.3574 45.9134C59.3582 44.9142 57.7449 44.9142 56.7561 45.9134L55.6111 47.0583L54.2892 45.7364C53.29 44.7372 51.6766 44.7372 50.6878 45.7364L49.5429 46.8918L48.221 45.5595C47.2217 44.5603 45.6084 44.5603 44.6195 45.5595L37.5937 52.5853C37.5417 52.6374 37.5417 52.7206 37.5937 52.7831C38.5305 53.7199 40.0606 53.7199 41.0078 52.7831L45.5355 48.2553C46.0247 47.7661 46.8158 47.7661 47.305 48.2553L47.6381 48.5884C47.7005 48.6508 47.7005 48.7445 47.6381 48.807L43.8597 52.5853C43.8077 52.6374 43.8077 52.7206 43.8597 52.7831C44.7965 53.7199 46.3266 53.7199 47.2738 52.7831L51.6142 48.4427C52.1034 47.9535 52.8945 47.9535 53.3837 48.4427L53.7167 48.7758C53.7688 48.8278 53.7688 48.9111 53.7167 48.9735L50.0737 52.6166C50.0217 52.6686 50.0217 52.7519 50.0737 52.8143C51.0105 53.7511 52.5405 53.7511 53.4877 52.8143L57.6824 48.6196C58.1716 48.1304 58.9626 48.1304 59.4519 48.6196L60.1701 49.3378C60.4511 49.6189 60.4511 50.0872 60.1701 50.3683L60.0556 50.4827C59.7745 50.7638 59.3062 50.7638 59.0251 50.4827L58.0987 49.5564C58.0467 49.5044 57.9634 49.5044 57.901 49.5564L56.2981 51.1593C56.246 51.2114 56.246 51.2946 56.2981 51.3571L57.7449 52.8039C58.7441 53.8031 60.3574 53.8031 61.3462 52.8039L62.4912 51.6589L62.4808 51.6277Z" fill="#478BF9"/>
<path id="Vector_7" d="M50.3978 12.304C29.414 12.304 12.4062 29.3117 12.4062 50.2955C12.4062 71.2793 29.414 88.287 50.3978 88.287C71.3816 88.287 88.3893 71.2793 88.3893 50.2955C88.3893 29.3117 71.3816 12.304 50.3978 12.304ZM51.9486 24.0345C58.0481 24.3884 63.5855 26.824 67.8738 30.6335L62.3885 36.1189C59.5261 33.6937 55.9143 32.122 51.9486 31.789V24.0345ZM48.8572 24.0345V31.789C44.8916 32.1116 41.2798 33.6937 38.4174 36.1189L32.932 30.6335C37.2204 26.824 42.7578 24.3884 48.8572 24.0345ZM30.7463 32.8194L36.2316 38.3048C33.8064 41.1671 32.2347 44.7789 31.9016 48.7446H24.1472C24.5011 42.6451 26.9367 37.1078 30.7463 32.8194ZM24.1472 51.836H31.9016C32.2243 55.8017 33.8064 59.4134 36.2316 62.2758L30.7463 67.7612C26.9367 63.4728 24.5011 57.9355 24.1472 51.836ZM48.8572 76.5461C42.7578 76.1922 37.2204 73.7565 32.932 69.947L38.4174 64.4616C41.2798 66.8868 44.8916 68.4586 48.8572 68.7916V76.5461ZM34.4309 50.2851C34.4309 41.4689 41.5817 34.3182 50.3978 34.3182C59.2139 34.3182 66.3646 41.4689 66.3646 50.2851C66.3646 59.1012 59.2139 66.2519 50.3978 66.2519C41.5817 66.2519 34.4309 59.1012 34.4309 50.2851ZM51.9486 76.5461V68.7916C55.9143 68.469 59.5261 66.8868 62.3885 64.4616L67.8738 69.947C63.5855 73.7565 58.0481 76.1922 51.9486 76.5461ZM70.0596 67.7612L64.5743 62.2758C66.9995 59.4134 68.5712 55.8017 68.9043 51.836H76.6587C76.3048 57.9355 73.8692 63.4728 70.0596 67.7612ZM68.9043 48.7446C68.5816 44.7789 66.9995 41.1671 64.5743 38.3048L70.0596 32.8194C73.8692 37.1078 76.3048 42.6451 76.6587 48.7446H68.9043Z" fill="#478BF9"/>
</g>
</g>
</svg>
