<svg width="100" height="100" viewBox="0 0 100 100" fill="none" xmlns="http://www.w3.org/2000/svg">
<g id="Shield">
<path id="Vector" d="M49.9826 100C37.2841 100 24.5959 95.1705 14.9263 85.5009C-4.40252 66.1721 -4.40252 34.7276 14.9263 15.3987C24.2941 6.03095 36.7428 0.878662 49.9826 0.878662C63.2224 0.878662 75.6711 6.03095 85.0389 15.3987C104.368 34.7276 104.368 66.1721 85.0389 85.5009C75.3797 95.1601 62.6811 100 49.9826 100ZM17.5285 82.8988C35.4209 100.791 64.5339 100.791 82.4263 82.8988C100.319 65.0063 100.319 35.8933 82.4263 18.0009C73.7559 9.33049 62.2335 4.56336 49.9722 4.56336C37.7108 4.56336 26.1884 9.3409 17.5181 18.0009C-0.374391 35.8933 -0.374391 65.0063 17.5181 82.8988H17.5285Z" fill="#9DADF2"/>
<g id="Group">
<path id="Vector_2" d="M49.3269 68.9929C49.5039 69.4196 49.9202 69.6693 50.3574 69.6693C50.5031 69.6693 50.6489 69.6382 50.7946 69.5861C54.2919 68.1185 57.4769 65.8493 59.9958 63.0182C60.4017 62.5602 60.3601 61.8525 59.9021 61.4466C59.4441 61.0407 58.7364 61.0823 58.3304 61.5403C56.0301 64.132 53.1261 66.2033 49.9306 67.5356C49.3686 67.775 49.0979 68.4308 49.3373 68.9929H49.3269Z" fill="#9DADF2"/>
<path id="Vector_3" d="M68.8729 33.3122L50.3872 25.9221C50.1166 25.818 49.8251 25.818 49.5545 25.9221L31.0688 33.3122C30.642 33.4788 30.3713 33.8847 30.3713 34.3427V47.5824C30.3922 59.8022 38.1154 70.8457 49.5857 75.0508C49.7106 75.0925 49.8355 75.1133 49.9708 75.1133C50.1061 75.1133 50.231 75.0925 50.3559 75.0508C61.8263 70.8353 69.5495 59.8022 69.5703 47.5824V34.3427C69.5703 33.8847 69.2997 33.4788 68.8729 33.3122ZM67.3428 47.5824C67.322 58.6989 60.3482 68.8264 49.9812 72.813C39.6142 68.8264 32.63 58.6989 32.6092 47.5824V35.1025L49.9812 28.1599L67.3428 35.1025V47.5824Z" fill="#9DADF2"/>
<path id="Vector_4" d="M42.2585 35.0502C41.9878 34.9357 41.686 34.9357 41.4049 35.0502L37.0021 36.8094C36.5754 36.9759 36.3047 37.3818 36.3047 37.8398V42.5341C36.3047 43.1482 36.8043 43.6478 37.4184 43.6478C38.0325 43.6478 38.5322 43.1482 38.5322 42.5341V38.5996L42.2272 37.1217C42.5082 37.0072 42.7164 36.7989 42.8413 36.5179C42.9558 36.2473 42.9558 35.9455 42.8413 35.6644C42.7268 35.3834 42.5187 35.1751 42.248 35.0502H42.2585Z" fill="#9DADF2"/>
<path id="Vector_5" d="M78.1259 22.2998C70.6109 14.7743 60.6082 10.6421 49.9706 10.6421C39.333 10.6421 29.3407 14.7847 21.8152 22.2998C6.29596 37.819 6.29596 63.0808 21.8152 78.6105C29.5801 86.3754 39.7701 90.2473 49.9706 90.2473C60.171 90.2473 70.3611 86.365 78.1259 78.6105C93.6452 63.0913 93.6452 37.8295 78.1259 22.2998ZM72.6198 47.5823C72.651 61.7068 63.6267 74.0619 50.1684 78.3399C50.0434 78.3815 49.9081 78.3815 49.7728 78.3399C36.3144 74.0619 27.2902 61.7068 27.3214 47.5823V31.959C27.3214 31.6987 27.4775 31.4594 27.7273 31.3553L49.7312 22.56C49.8041 22.5288 49.8873 22.5184 49.9706 22.5184C50.0539 22.5184 50.1371 22.5288 50.21 22.56L72.2138 31.3657C72.4636 31.4594 72.6198 31.6987 72.6198 31.9694V47.5927V47.5823Z" fill="#9DADF2"/>
</g>
</g>
</svg>
