<svg width="100" height="221" viewBox="0 0 100 221" fill="none" xmlns="http://www.w3.org/2000/svg">
<g id="$">
<g id="Group">
<path id="Vector" d="M99.1109 171.285C99.1109 198.608 76.878 220.841 49.5554 220.841C22.2327 220.841 -0.00012207 198.608 -0.00012207 171.285C-0.00012207 143.963 22.2327 121.73 49.5554 121.73C76.878 121.73 99.1109 143.963 99.1109 171.285ZM3.57003 171.285C3.57003 196.641 24.1999 217.271 49.5554 217.271C74.9108 217.271 95.5407 196.641 95.5407 171.285C95.5407 145.93 74.9108 125.3 49.5554 125.3C24.1999 125.3 3.57003 145.93 3.57003 171.285Z" fill="#478BF9"/>
<path id="Vector_2" d="M99.1135 50.1495C99.1135 51.1383 98.312 51.9294 97.3336 51.9294C96.3552 51.9294 95.5537 51.1279 95.5537 50.1495C95.5537 24.7941 74.9238 4.16415 49.5684 4.16415C24.213 4.16415 3.58305 24.7941 3.58305 50.1495C3.58305 51.1383 2.78156 51.9294 1.80315 51.9294C0.82474 51.9294 0.0233154 51.1279 0.0233154 50.1495C0.0233154 22.8268 22.2561 0.593994 49.5788 0.593994C76.9015 0.593994 99.1343 22.8268 99.1343 50.1495H99.1135Z" fill="#478BF9"/>
<g id="Group_2">
<path id="Vector_3" d="M40.0118 162.532C40.0118 164.353 41.2505 165.935 43.02 166.372L46.3819 167.215V158.566H43.9879C41.8021 158.566 40.0223 160.346 40.0223 162.532H40.0118Z" fill="#478BF9"/>
<path id="Vector_4" d="M52.7292 184.005H55.1233C57.3091 184.005 59.089 182.225 59.089 180.039C59.089 178.217 57.8503 176.635 56.0808 176.198L52.7189 175.355V184.005H52.7292Z" fill="#478BF9"/>
<path id="Vector_5" d="M49.5562 130.962C27.3234 130.962 9.22278 149.052 9.22278 171.296C9.22278 193.539 27.313 211.629 49.5562 211.629C71.7995 211.629 89.8897 193.539 89.8897 171.296C89.8897 149.052 71.7995 130.962 49.5562 130.962ZM65.4607 164.926H59.1009V161.74C59.1009 159.992 57.675 158.555 55.9159 158.555H52.7309V168.798L57.6334 170.026C62.234 171.181 65.4502 175.293 65.4502 180.039C65.4502 185.732 60.8184 190.364 55.1249 190.364H52.7309V198.421H46.3712V190.364H43.1862C37.9194 190.364 33.6415 186.086 33.6415 180.82V177.635H40.0011V180.82C40.0011 182.568 41.4271 184.005 43.1862 184.005H46.3712V173.762L41.4687 172.534C36.8681 171.379 33.6519 167.267 33.6519 162.521C33.6519 156.828 38.2837 152.196 43.9772 152.196H46.3712V144.14H52.7309V152.196H55.9159C61.1827 152.196 65.4607 156.474 65.4607 161.74V164.926Z" fill="#478BF9"/>
</g>
</g>
<g id="Group_3">
<path id="Vector_6" d="M99.1729 49.3897V168.985C99.1729 169.974 98.3715 170.765 97.3931 170.765C96.4146 170.765 95.6132 169.963 95.6132 168.985V49.3897C95.6132 48.4009 96.4146 47.6099 97.3931 47.6099C98.3715 47.6099 99.1729 48.4113 99.1729 49.3897Z" fill="#478BF9"/>
</g>
<g id="Group_4">
<path id="Vector_7" d="M3.63774 49.1294V168.725C3.63774 169.714 2.83625 170.505 1.85784 170.505C0.879427 170.505 0.0780029 169.703 0.0780029 168.725V49.1294C0.0780029 48.1406 0.879427 47.3496 1.85784 47.3496C2.83625 47.3496 3.63774 48.151 3.63774 49.1294Z" fill="#478BF9"/>
</g>
</g>
</svg>
