<svg width="100" height="100" viewBox="0 0 100 100" fill="none" xmlns="http://www.w3.org/2000/svg">
<g id="Soccer">
<path id="Vector" d="M49.8769 99.1527C22.5542 99.1527 0.331787 76.9198 0.331787 49.6076C0.331787 22.2953 22.5646 0.0625 49.8769 0.0625C77.1891 0.0625 99.422 22.2953 99.422 49.6076C99.422 76.9198 77.1891 99.1527 49.8769 99.1527ZM49.8769 3.36202C24.3757 3.36202 3.63131 24.1064 3.63131 49.6076C3.63131 75.1087 24.3757 95.8531 49.8769 95.8531C75.378 95.8531 96.1224 75.1087 96.1224 49.6076C96.1224 24.1064 75.378 3.36202 49.8769 3.36202Z" fill="#9DADF2"/>
<g id="Group">
<path id="Vector_2" d="M65.9512 18.6731C65.7014 18.6731 65.4516 18.6211 65.2226 18.5066C60.4242 16.1334 55.2615 14.926 49.8803 14.926C44.499 14.926 39.3363 16.1334 34.538 18.5066C33.903 18.8188 33.1432 18.6939 32.6436 18.1943L24.1293 9.68007C23.765 9.31577 23.5985 8.81614 23.6609 8.30612C23.7234 7.7961 24.0148 7.34854 24.452 7.08833C32.1232 2.48771 40.9185 0.0625 49.8907 0.0625C58.8629 0.0625 67.6582 2.49812 75.3294 7.08833C75.7666 7.34854 76.058 7.7961 76.1205 8.30612C76.1829 8.81614 76.006 9.31577 75.6521 9.68007L67.1378 18.1943C66.8151 18.5066 66.3988 18.6731 65.9616 18.6731H65.9512ZM49.8803 11.6265C55.3656 11.6265 60.6532 12.7714 65.6077 15.0301L71.7697 8.86817C65.0665 5.25637 57.541 3.36202 49.8803 3.36202C42.2195 3.36202 34.6941 5.25637 27.991 8.86817L34.1528 15.0301C39.1074 12.7714 44.3949 11.6265 49.8803 11.6265Z" fill="#9DADF2"/>
<path id="Vector_3" d="M49.8785 99.1526C40.9062 99.1526 32.1109 96.717 24.4398 92.1268C24.0026 91.8666 23.7112 91.419 23.6487 90.909C23.5863 90.399 23.7632 89.8994 24.1171 89.5351L32.6314 81.0208C33.131 80.5212 33.9012 80.3963 34.5258 80.7086C39.3241 83.0817 44.4868 84.2891 49.8681 84.2891C55.2493 84.2891 60.4121 83.0817 65.2105 80.7086C65.8454 80.3963 66.6052 80.5212 67.1048 81.0208L75.6191 89.5351C75.9834 89.8994 76.1499 90.399 76.0874 90.909C76.025 91.419 75.7335 91.8666 75.2964 92.1268C67.6252 96.7274 58.83 99.1526 49.8577 99.1526H49.8785ZM27.9892 90.347C34.6923 93.9588 42.2177 95.8531 49.8785 95.8531C57.5392 95.8531 65.0647 93.9588 71.7679 90.347L65.6059 84.1851C60.6514 86.4438 55.3638 87.5887 49.8785 87.5887C44.3931 87.5887 39.1056 86.4438 34.1511 84.1851L27.9892 90.347Z" fill="#9DADF2"/>
<path id="Vector_4" d="M90.9825 75.8477C90.5453 75.8477 90.129 75.6812 89.8167 75.3689L81.3024 66.8546C80.8028 66.355 80.6779 65.5848 80.9902 64.9603C83.3634 60.1619 84.5708 54.9992 84.5708 49.618C84.5708 44.2367 83.3634 39.074 80.9902 34.2756C80.6779 33.6407 80.8028 32.8705 81.3024 32.3813L89.8167 23.867C90.181 23.5027 90.6806 23.3361 91.1906 23.3986C91.7007 23.461 92.1482 23.7525 92.4084 24.1897C97.0091 31.8608 99.4343 40.6561 99.4343 49.6284C99.4343 58.6006 97.0091 67.3959 92.4084 75.0671C92.1482 75.5042 91.7007 75.7957 91.1906 75.8581C91.1178 75.8581 91.0553 75.8581 90.9825 75.8581V75.8477ZM84.4563 65.335L90.6182 71.4969C94.23 64.7938 96.1243 57.2683 96.1243 49.6075C96.1243 41.9468 94.23 34.4214 90.6182 27.7182L84.4563 33.8801C86.715 38.8346 87.8599 44.1222 87.8599 49.6075C87.8599 55.0929 86.715 60.3805 84.4563 65.335Z" fill="#9DADF2"/>
<path id="Vector_5" d="M8.77293 75.8478C8.70007 75.8478 8.63762 75.8478 8.57516 75.8374C8.06514 75.7749 7.61759 75.4835 7.35737 75.0463C2.75675 67.3751 0.331543 58.5799 0.331543 49.6076C0.331543 40.6354 2.75675 31.8401 7.35737 24.1689C7.61759 23.7317 8.06514 23.4403 8.57516 23.3778C9.08519 23.3154 9.58481 23.4923 9.94911 23.8462L18.4634 32.3605C18.963 32.8601 19.0879 33.6304 18.7756 34.2549C16.4024 39.0533 15.195 44.2159 15.195 49.5972C15.195 54.9785 16.4024 60.1411 18.7756 64.9395C19.0879 65.5744 18.963 66.3447 18.4634 66.8339L9.94911 75.3481C9.63685 75.6604 9.22051 75.8374 8.78335 75.8374L8.77293 75.8478ZM9.13721 27.7183C5.52541 34.4214 3.63106 41.9469 3.63106 49.6076C3.63106 57.2684 5.52541 64.7938 9.13721 71.497L15.2992 65.335C13.0405 60.3805 11.8955 55.093 11.8955 49.6076C11.8955 44.1223 13.0405 38.8347 15.2992 33.8802L9.13721 27.7183Z" fill="#9DADF2"/>
</g>
<path id="Vector_6" d="M49.878 11.6162C28.9358 11.6162 11.8865 28.6551 11.8865 49.6077C11.8865 70.5603 28.9254 87.5993 49.878 87.5993C70.8306 87.5993 87.8695 70.5603 87.8695 49.6077C87.8695 28.6551 70.8306 11.6162 49.878 11.6162ZM71.2574 37.1278C73.0581 40.2087 74.151 43.5707 74.5049 47.1409C74.5153 47.2866 74.4528 47.4219 74.3279 47.4948C71.6112 49.1602 69.1756 51.2003 67.0731 53.5838C66.9794 53.6983 66.8233 53.7399 66.688 53.6879L61.9937 52.1579C61.8583 52.1162 61.7647 52.0018 61.7439 51.856C61.213 47.9736 60.0056 44.2577 58.1529 40.802C58.0904 40.6771 58.1009 40.5314 58.1841 40.4169L61.0881 36.42C61.161 36.3263 61.2754 36.2639 61.3899 36.2639C61.4212 36.2639 61.442 36.2639 61.4732 36.2639C64.575 36.9508 67.7601 37.1798 70.9243 36.9196C71.07 36.9092 71.2053 36.982 71.2781 37.1069L71.2574 37.1278ZM59.1833 52.5117C59.1937 52.6158 59.1625 52.7199 59.1 52.7928C56.6332 55.6343 53.4898 57.9138 50.0237 59.371C49.93 59.4127 49.8364 59.4127 49.7427 59.371C46.2766 57.9034 43.1332 55.6239 40.6664 52.7928C40.6039 52.7199 40.5727 52.6158 40.5831 52.5117C41.0619 48.7438 42.2381 45.1424 44.0596 41.8117C44.1116 41.718 44.1949 41.6556 44.299 41.6347C46.1309 41.2496 48.0044 41.0519 49.8884 41.0519C51.7724 41.0519 53.6459 41.2496 55.4778 41.6347C55.5819 41.6556 55.6652 41.718 55.7172 41.8117C57.5387 45.1424 58.7045 48.7438 59.1937 52.5117H59.1833ZM58.6213 26.6775C58.6213 26.6775 58.7462 26.5734 58.8711 26.5734C58.9127 26.5734 58.9648 26.5734 59.0168 26.6047C62.8472 28.1243 66.2716 30.6224 68.9362 33.8178C69.0715 33.974 69.0195 34.1405 68.9882 34.203C68.9674 34.255 68.8738 34.4216 68.6552 34.4216C66.2924 34.4528 63.9401 34.1822 61.6606 33.6409C61.5669 33.6201 61.4837 33.5576 61.4316 33.4743C60.2138 31.4655 59.2354 29.3005 58.5276 27.0522C58.4651 26.8545 58.5796 26.7192 58.6317 26.6775H58.6213ZM44.6216 25.4285C48.0669 24.6895 51.6995 24.6895 55.1448 25.4285C55.2801 25.4597 55.3946 25.5638 55.4258 25.6991C56.1648 28.7905 57.3618 31.7465 58.9751 34.484C59.048 34.6089 59.0376 34.765 58.9544 34.8899L56.0711 38.866C55.9879 38.9805 55.8422 39.043 55.7069 39.0117C51.8973 38.2415 47.8692 38.2415 44.0596 39.0117C43.9243 39.043 43.7785 38.9805 43.6953 38.866L40.8121 34.8899C40.7288 34.7754 40.7184 34.6089 40.7913 34.484C42.4046 31.7465 43.6016 28.7905 44.3406 25.6991C44.3718 25.5638 44.4863 25.4597 44.6216 25.4285ZM30.8302 33.8178C33.4948 30.612 36.9193 28.1139 40.7497 26.6047C40.8017 26.5839 40.8537 26.5734 40.8953 26.5734C41.0306 26.5734 41.1139 26.6463 41.1451 26.6775C41.1972 26.7296 41.3117 26.8545 41.2493 27.0522C40.5415 29.3109 39.563 31.4655 38.3452 33.4743C38.2932 33.5576 38.2099 33.6201 38.1162 33.6409C35.8368 34.1822 33.4844 34.4528 31.1217 34.4216C30.9031 34.4216 30.8094 34.255 30.7886 34.203C30.7574 34.1405 30.7053 33.974 30.8406 33.8178H30.8302ZM28.5091 37.1278C28.5716 37.0133 28.6965 36.9404 28.8318 36.9404C28.8318 36.9404 28.8525 36.9404 28.863 36.9404C32.0376 37.1902 35.2227 36.9717 38.314 36.2847C38.4597 36.2535 38.6054 36.3055 38.6887 36.4304L41.5928 40.4273C41.676 40.5418 41.6864 40.6979 41.624 40.8124C39.7712 44.2681 38.5638 47.984 38.033 51.8664C38.0121 52.0017 37.9185 52.1162 37.7832 52.1683L33.0889 53.6983C32.9535 53.7399 32.7974 53.6983 32.7037 53.5943C30.6012 51.2107 28.1656 49.1705 25.449 47.5052C25.3345 47.4323 25.2616 47.297 25.272 47.1513C25.6259 43.5811 26.7188 40.2088 28.5195 37.1382L28.5091 37.1278ZM29.6436 62.7747C29.5812 62.9724 29.4042 63.0141 29.3314 63.0245C29.2585 63.0245 29.0919 63.0244 28.9774 62.8579C26.7604 59.371 25.449 55.3325 25.1887 51.1899C25.1783 50.9817 25.3136 50.8776 25.3761 50.8464C25.4385 50.8151 25.6051 50.7423 25.7716 50.8672C27.6972 52.2307 29.4459 53.8337 30.9759 55.6135C31.0384 55.6864 31.0696 55.7801 31.0592 55.8842C30.8718 58.2261 30.393 60.5472 29.6332 62.7851L29.6436 62.7747ZM39.9273 72.2778C36.6798 70.8518 33.8175 68.7596 31.4235 66.0742C31.3298 65.9701 31.2986 65.814 31.3506 65.6891C32.5684 62.7538 33.3387 59.6625 33.6405 56.4982C33.651 56.3525 33.755 56.2276 33.8903 56.186L38.5326 54.6767C38.5326 54.6767 38.6055 54.6559 38.6471 54.6559C38.7512 54.6559 38.8449 54.6976 38.9177 54.7809C41.5199 57.6953 44.7778 60.0684 48.348 61.6401C48.4833 61.7026 48.5665 61.8275 48.5665 61.9732V66.8548C48.5665 67.0006 48.4833 67.1359 48.348 67.1879C45.4335 68.4474 42.7272 70.144 40.302 72.2153C40.198 72.309 40.0418 72.3298 39.9169 72.2673L39.9273 72.2778ZM56.3001 73.3082C56.2897 73.3811 56.2377 73.5476 56.0295 73.5996C52.0118 74.6197 47.765 74.6197 43.7473 73.5996C43.5495 73.5476 43.4871 73.3811 43.4767 73.3082C43.4663 73.2354 43.4454 73.0688 43.6224 72.9335C45.5168 71.5284 47.5777 70.3521 49.7531 69.4466C49.8468 69.4049 49.9405 69.4049 50.0341 69.4466C52.1991 70.3521 54.2601 71.5284 56.1648 72.9335C56.3314 73.0584 56.3209 73.2354 56.3105 73.3082H56.3001ZM68.3637 66.0846C65.9698 68.77 63.1074 70.8518 59.8599 72.2778C59.7246 72.3402 59.5789 72.3089 59.4748 72.2257C57.0496 70.1544 54.3537 68.4578 51.4289 67.1983C51.2936 67.1359 51.2103 67.011 51.2103 66.8653V61.9836C51.2103 61.8379 51.2936 61.7026 51.4289 61.6505C54.999 60.0788 58.2673 57.7056 60.8591 54.7912C60.9319 54.7079 61.0256 54.6663 61.1297 54.6663C61.1714 54.6663 61.2026 54.6663 61.2442 54.6871L65.8865 56.1964C66.0218 56.238 66.1259 56.3629 66.1363 56.5087C66.4381 59.6729 67.2084 62.7539 68.4262 65.6995C68.4782 65.8244 68.4574 65.9805 68.3533 66.0846H68.3637ZM70.7994 62.8683C70.6849 63.0453 70.5079 63.0453 70.4455 63.0349C70.3726 63.0349 70.2061 62.9829 70.1332 62.7851C69.3838 60.5472 68.905 58.2261 68.7072 55.8842C68.7072 55.7905 68.728 55.6864 68.7905 55.6135C70.3205 53.8337 72.0692 52.2411 73.9948 50.8672C74.0676 50.8152 74.1405 50.7943 74.203 50.7943C74.2862 50.7943 74.3487 50.8255 74.3903 50.8464C74.4528 50.8776 74.5985 50.9817 74.5777 51.1899C74.3175 55.3325 73.006 59.371 70.789 62.8579L70.7994 62.8683Z" fill="#9DADF2"/>
</g>
</svg>
