<svg width="100" height="101" viewBox="0 0 100 101" fill="none" xmlns="http://www.w3.org/2000/svg">
<g id="Crown">
<path id="Vector" d="M14.6172 85.6719C-4.87255 66.1822 -4.87255 34.4735 14.6172 14.9837C34.1069 -4.50598 65.8156 -4.50598 85.3053 14.9837C104.795 34.4735 104.795 66.1822 85.3053 85.6719C65.8156 105.162 34.1069 105.162 14.6172 85.6719ZM82.9497 17.3394C64.7586 -0.851653 35.1638 -0.851653 16.9775 17.3394C-1.2135 35.5304 -1.2135 65.1253 16.9775 83.3116C35.1686 101.503 64.7634 101.503 82.9497 83.3116C101.141 65.1205 101.141 35.5257 82.9497 17.3394Z" fill="white"/>
<g id="Group">
<path id="Vector_2" d="M83.4893 39.7251C83.3139 39.5498 83.1717 39.327 83.0912 39.0805C81.3612 33.9616 78.5363 29.4257 74.6971 25.5865C70.8626 21.7521 66.322 18.9272 61.2031 17.1925C60.5253 16.9603 60.0703 16.3299 60.0703 15.6142V3.46628C60.0703 2.95439 60.3073 2.47093 60.7102 2.15337C61.1178 1.83581 61.6439 1.7268 62.1368 1.85003C70.8863 4.03978 78.8965 8.58043 85.2951 14.9838C91.6937 21.3871 96.2344 29.3925 98.4241 38.1421C98.5474 38.6397 98.4336 39.1658 98.1208 39.5734C97.8032 39.9811 97.3198 40.2133 96.8079 40.2133H84.66C84.205 40.2133 83.7879 40.0285 83.4798 39.7204L83.4893 39.7251ZM77.0527 23.2309C80.9677 27.1459 83.9206 31.734 85.8449 36.8813H94.6324C92.4237 29.5252 88.4091 22.8043 82.9442 17.3394C77.4793 11.8745 70.7584 7.85999 63.4071 5.65603V14.4435C68.5544 16.3631 73.1424 19.3159 77.0574 23.2356L77.0527 23.2309Z" fill="white"/>
<path id="Vector_3" d="M14.616 85.6718C8.21737 79.2732 3.67197 71.2631 1.48222 62.5136C1.35899 62.0159 1.47275 61.4898 1.78557 61.0869C2.10313 60.6793 2.58656 60.447 3.09845 60.447H15.2464C15.9621 60.447 16.5972 60.902 16.8247 61.5798C18.5547 66.6987 21.3795 71.2346 25.2187 75.0738C29.0531 78.9082 33.5938 81.7331 38.7127 83.4678C39.3905 83.6953 39.8455 84.3305 39.8455 85.0462V97.1941C39.8455 97.706 39.6085 98.1894 39.2056 98.507C38.798 98.8245 38.2719 98.9335 37.7742 98.8103C29.0247 96.6206 21.0194 92.0799 14.616 85.6813V85.6718ZM5.28348 63.7743C7.49219 71.1304 11.5067 77.8513 16.9716 83.3162C22.4365 88.7811 29.1575 92.7956 36.5135 95.0043V86.2169C31.3662 84.2973 26.7781 81.3444 22.8631 77.4294C18.9481 73.5144 15.9952 68.9264 14.0709 63.7791H5.28348V63.7743Z" fill="white"/>
<path id="Vector_4" d="M60.5663 98.365C60.2535 98.0521 60.0781 97.6303 60.0781 97.1848V85.0369C60.0781 84.3212 60.5331 83.6861 61.2109 83.4586C66.3298 81.7286 70.8657 78.9037 74.7049 75.0645C78.5441 71.2253 81.3642 66.6894 83.0989 61.5705C83.3264 60.8927 83.9616 60.4377 84.6773 60.4377H96.8252C97.3371 60.4377 97.8205 60.6747 98.1381 61.0776C98.4556 61.4805 98.5647 62.0113 98.4414 62.5043C96.2469 71.2538 91.7063 79.2592 85.3076 85.6625C78.909 92.0659 70.8989 96.6065 62.1494 98.7963C61.6517 98.9195 61.1256 98.8058 60.7227 98.4929C60.6706 98.4455 60.6185 98.4029 60.5711 98.3555L60.5663 98.365ZM63.4102 86.2123V94.9998C70.7662 92.7911 77.4871 88.7765 82.952 83.3116C88.4169 77.8467 92.4267 71.1258 94.6402 63.7698H85.8527C83.9331 68.9171 80.9803 73.5004 77.0605 77.4201C73.1455 81.3351 68.5575 84.2927 63.4102 86.2123Z" fill="white"/>
<path id="Vector_5" d="M1.91901 39.7251C1.87161 39.6777 1.82423 39.6256 1.78631 39.5734C1.46875 39.1706 1.35973 38.6397 1.48296 38.142C3.67271 29.3925 8.21337 21.3824 14.6167 14.9838C21.0201 8.58516 29.0254 4.03977 37.775 1.85002C38.2726 1.72679 38.7988 1.84053 39.2016 2.15335C39.6045 2.47092 39.8415 2.95438 39.8415 3.46627V15.6142C39.8415 16.3299 39.3865 16.965 38.7087 17.1925C33.5898 18.9225 29.0539 21.7474 25.2147 25.5865C21.3803 29.421 18.5554 33.9616 16.8207 39.0805C16.5932 39.7583 15.9581 40.2133 15.2424 40.2133H3.09448C2.64895 40.2133 2.22235 40.0379 1.91427 39.7299L1.91901 39.7251ZM36.5095 5.65601C29.1535 7.86472 22.4325 11.8793 16.9676 17.3442C11.5027 22.8091 7.49293 29.53 5.27948 36.886H14.0669C15.9865 31.7387 18.9393 27.1554 22.8591 23.2356C26.7741 19.3206 31.3622 16.3678 36.5095 14.4435V5.65601Z" fill="white"/>
</g>
<path id="Vector_6" d="M77.0565 23.2309C62.1169 8.29129 37.8022 8.28655 22.8626 23.2309C7.91827 38.1752 7.92301 62.4852 22.8626 77.4248C37.8022 92.3644 62.1122 92.3692 77.0565 77.4248C92.0009 62.4805 91.9961 38.1705 77.0565 23.2309Z" fill="white"/>
<g id="Group_2">
<path id="Vector_7" d="M63.7833 64.0054L36.2557 64.188C35.0961 64.1957 34.1622 65.1419 34.1699 66.3015L34.1764 67.2827C34.1841 68.4423 35.1304 69.3761 36.29 69.3684L63.8177 69.1858C64.9773 69.1781 65.9111 68.2318 65.9034 67.0722L65.8969 66.0911C65.8892 64.9315 64.9429 63.9977 63.7833 64.0054Z" fill="#110A1D"/>
<path id="Vector_8" d="M40.0062 47.3892C39.7076 47.3892 39.4043 47.3228 39.1294 47.1901L36.9823 46.1521C36.0486 45.6971 35.622 44.5927 36.0106 43.6306L36.9965 41.1754C37.2999 40.4265 38.0156 39.9383 38.8213 39.9336C39.1673 39.9336 39.5086 40.0189 39.8119 40.1943L42.3714 41.6541C42.8501 41.9243 43.1961 42.3935 43.3193 42.9338C43.4425 43.4742 43.3335 44.0429 43.0207 44.4979L41.6178 46.5313C41.2528 47.0621 40.6461 47.3844 40.0015 47.3844L40.0062 47.3892Z" fill="#110A1D"/>
<path id="Vector_9" d="M59.8211 47.2564C59.1765 47.2564 58.5651 46.9484 58.1954 46.4223L56.8066 44.4648C56.4843 44.0145 56.3706 43.4457 56.4844 42.9054C56.5981 42.3651 56.9394 41.8911 57.4181 41.6114L60.0581 40.0616C60.3567 39.8862 60.698 39.7914 61.044 39.7867C61.8497 39.7819 62.5749 40.2606 62.8877 41.0048L63.8831 43.3888C64.2812 44.3463 63.8689 45.4601 62.9446 45.9246L60.698 47.0479C60.4278 47.1806 60.1244 47.2564 59.8258 47.2564H59.8211Z" fill="#110A1D"/>
<path id="Vector_10" d="M37.8437 62.3478C36.635 62.3573 35.5497 61.5989 35.1373 60.4614L30.5445 47.8206C30.2507 47.9628 29.9378 48.0718 29.6203 48.1523C29.2458 48.2471 28.8666 48.2945 28.4827 48.2945C28.26 48.2945 28.0419 48.2851 27.8286 48.2566C25.4351 47.9533 23.6198 45.901 23.6056 43.4837C23.5866 40.8105 25.7479 38.6208 28.4211 38.6018C31.0943 38.5829 33.2841 40.7442 33.2983 43.4174C33.2983 44.0335 33.194 44.626 32.976 45.1805C32.8575 45.4839 32.7106 45.773 32.54 46.0479L41.2752 50.2757L47.9583 40.5925C47.6786 40.474 47.4084 40.3271 47.1525 40.1517C46.669 39.8247 46.2472 39.417 45.9059 38.9383C45.3277 38.1231 45.0149 37.1609 45.0101 36.1656C44.9912 33.4924 47.1525 31.3027 49.8257 31.2837C49.9442 31.2837 50.0674 31.2837 50.1859 31.2932C52.5795 31.4543 54.5133 33.3739 54.6886 35.7675C54.7692 36.9003 54.4706 37.9857 53.826 38.9099C53.4848 39.3933 53.0676 39.8057 52.5889 40.1327C52.3377 40.3081 52.0676 40.455 51.7879 40.5735L58.5894 50.1573L67.1825 45.8583C67.0214 45.5502 66.8934 45.2279 66.7987 44.8914C66.6849 44.4838 66.6233 44.0572 66.6233 43.6259C66.6233 43.4316 66.6327 43.2373 66.6517 43.0477C66.9266 40.6115 68.9836 38.763 71.4341 38.7487C74.1073 38.7298 76.297 40.8911 76.3112 43.5643C76.3302 46.1143 74.349 48.2566 71.8038 48.432L71.5004 48.4415C71.0075 48.4415 70.5241 48.3751 70.0548 48.2329C69.7515 48.1381 69.4576 48.0196 69.1827 47.868L64.8696 60.2623C64.4762 61.4046 63.3955 62.1724 62.1869 62.1819L37.8437 62.3431V62.3478Z" fill="#110A1D"/>
</g>
</g>
</svg>
