<svg width="100" height="100" viewBox="0 0 100 100" fill="none" xmlns="http://www.w3.org/2000/svg">
<g id="Timer">
<path id="Vector" d="M49.5528 99.6273C36.8542 99.6273 24.1661 94.7977 14.4965 85.1281C-4.83233 65.7992 -4.83233 34.3548 14.4965 15.0259C23.8643 5.65815 36.313 0.505859 49.5528 0.505859C62.7926 0.505859 75.2413 5.65815 84.6091 15.0259C103.938 34.3548 103.938 65.7992 84.6091 85.1281C74.9499 94.7873 62.2513 99.6273 49.5528 99.6273ZM17.0987 82.5259C34.9911 100.418 64.104 100.418 81.9965 82.5259C99.8889 64.6335 99.8889 35.5205 81.9965 17.6281C73.3261 8.95768 61.8037 4.19049 49.5424 4.19049C37.281 4.19049 25.7586 8.96809 17.0882 17.6281C-0.8042 35.5205 -0.8042 64.6335 17.0882 82.5259H17.0987Z" fill="#7DDACF"/>
<g id="Group">
<path id="Vector_2" d="M51.3875 39.6426L42.207 52.5076H47.7132V61.6881L56.8936 48.8334H51.3875V39.6426Z" fill="#7DDACF"/>
<path id="Vector_3" d="M49.5432 32.4917C39.4885 32.4917 31.3281 40.6521 31.3281 50.7068C31.3281 60.7616 39.4885 68.9011 49.5432 68.9011C59.598 68.9011 67.7584 60.7407 67.7584 50.7068C67.7584 40.6729 59.598 32.4917 49.5432 32.4917ZM49.5432 66.6528C40.7167 66.6528 33.5556 59.4917 33.5556 50.6652C33.5556 41.8387 40.7167 34.6776 49.5432 34.6776C58.3698 34.6776 65.531 41.8387 65.531 50.6652C65.531 59.4917 58.3698 66.6528 49.5432 66.6528Z" fill="#7DDACF"/>
<path id="Vector_4" d="M77.7001 21.927C70.1851 14.4015 60.1823 10.2693 49.5447 10.2693C38.9071 10.2693 28.9148 14.4119 21.3893 21.927C5.87006 37.4462 5.87006 62.708 21.3893 78.2377C29.1542 86.0025 39.3442 89.8849 49.5447 89.8849C59.7451 89.8849 69.9352 86.0025 77.7001 78.2377C93.2194 62.7184 93.2194 37.4567 77.7001 21.927ZM49.5447 75.417C35.9302 75.417 24.845 64.3317 24.845 50.7172C24.845 44.701 26.9996 39.1845 30.5802 34.8753L27.5616 31.8568C26.6977 30.9929 26.6977 29.5877 27.5616 28.7134C28.4256 27.8391 29.8307 27.8495 30.7051 28.7134L33.7236 31.7319C37.4707 28.5989 42.1858 26.538 47.3276 26.1008V24.0607H45.2876C43.4869 24.0607 41.9984 22.5723 41.9984 20.7716V19.0542C41.9984 17.2327 43.4869 15.7651 45.2876 15.7651H53.8227C55.6234 15.7651 57.1118 17.2327 57.1118 19.0542V20.7716C57.1118 22.5723 55.6234 24.0607 53.8227 24.0607H51.7826V26.1008C56.9348 26.5484 61.6395 28.6093 65.3867 31.7319L68.4051 28.7134C69.269 27.8495 70.6742 27.8495 71.5485 28.7134C72.4125 29.5773 72.4125 30.9825 71.5485 31.8568L68.53 34.8753C72.1106 39.1845 74.2652 44.6906 74.2652 50.7172C74.2652 64.3317 63.18 75.417 49.5655 75.417H49.5447Z" fill="#7DDACF"/>
</g>
</g>
</svg>
