<svg width="100" height="222" viewBox="0 0 100 222" fill="none" xmlns="http://www.w3.org/2000/svg">
<g id="World">
<g id="Group">
<path id="Vector" d="M0.546753 50.4613C0.546753 23.1386 22.7796 0.905762 50.1023 0.905762C77.425 0.905762 99.6578 23.1386 99.6578 50.4613C99.6578 77.7839 77.425 100.017 50.1023 100.017C22.7796 100.017 0.546753 77.7839 0.546753 50.4613ZM96.0877 50.4613C96.0877 25.1058 75.4577 4.47592 50.1023 4.47592C24.7469 4.47592 4.11697 25.1058 4.11697 50.4613C4.11697 75.8167 24.7469 96.4466 50.1023 96.4466C75.4577 96.4466 96.0877 75.8167 96.0877 50.4613Z" fill="#478BF9"/>
<path id="Vector_2" d="M0.544089 171.607C0.544089 170.618 1.34558 169.827 2.32399 169.827C3.3024 169.827 4.10389 170.629 4.10389 171.607C4.10389 196.963 24.7338 217.593 50.0892 217.593C75.4447 217.593 96.0746 196.963 96.0746 171.607C96.0746 170.618 96.8761 169.827 97.8545 169.827C98.8329 169.827 99.6343 170.629 99.6343 171.607C99.6343 198.93 77.4015 221.163 50.0788 221.163C22.7561 221.163 0.523315 198.93 0.523315 171.607H0.544089Z" fill="#478BF9"/>
<g id="Group_2">
<path id="Vector_3" d="M98.1434 49.2644H76.4414V53.5423H98.1434V49.2644Z" fill="#478BF9"/>
<path id="Vector_4" d="M23.4207 49.2644H1.71863V53.5423H23.4207V49.2644Z" fill="#478BF9"/>
<path id="Vector_5" d="M52.4107 78.2419H48.1328V99.944H52.4107V78.2419Z" fill="#478BF9"/>
<path id="Vector_6" d="M52.4107 2.86255H48.1328V24.5645H52.4107V2.86255Z" fill="#478BF9"/>
<path id="Vector_7" d="M75.7858 24.2522C60.9431 9.40944 36.8678 9.40944 22.0147 24.2522C7.17201 39.0949 7.17201 63.1701 22.0147 78.0232C36.8574 92.8659 60.9326 92.8659 75.7858 78.0232C90.6285 63.1805 90.6285 39.1053 75.7858 24.2522ZM56.2487 27.4684C60.5787 28.8112 64.4611 31.3196 67.4796 34.7337L68.0625 35.3894L67.2091 35.5872C64.9504 36.118 62.5356 36.5552 60.0375 36.8778L59.5899 36.9403L59.465 36.5031C59.0487 35.0772 58.5595 33.7032 57.9974 32.4333C57.3 30.8408 56.5194 29.446 55.6659 28.2699L54.7291 26.9896L56.2487 27.458V27.4684ZM38.8767 49.9511L38.8976 49.4098C39.0017 46.1207 39.3659 42.9773 39.9905 40.0837L40.0842 39.6257L40.5525 39.6673C46.0274 40.1461 51.8771 40.1253 57.3209 39.6153L57.7892 39.5737L57.8933 40.0317C58.5283 42.9565 58.8925 46.1103 58.9862 49.4098V49.9511H38.8871H38.8767ZM58.9862 52.3659V52.9072C58.8717 56.2067 58.5074 59.3605 57.8725 62.2853L57.7684 62.7433L57.3 62.7017C51.8563 62.1916 46.0067 62.1812 40.5317 62.6496L40.0633 62.6912L39.9696 62.2333C39.3451 59.3396 38.9808 56.2067 38.8767 52.9072L38.8559 52.3659H58.9654H58.9862ZM48.9315 26.5629C51.9604 26.5629 55.0413 30.4036 56.9669 36.5968L57.1647 37.2213L56.509 37.2734C53.9484 37.4919 51.3047 37.6064 48.6505 37.6064C46.1836 37.6064 43.7271 37.5127 41.3331 37.315L40.6774 37.2629L40.8752 36.628C42.8008 30.4141 45.8922 26.5525 48.9315 26.5525V26.5629ZM30.2792 34.8481C33.3185 31.3821 37.2322 28.832 41.6142 27.4789L43.1443 27.0105L42.1971 28.3011C41.3436 29.4669 40.5525 30.872 39.8656 32.4542C39.3139 33.7032 38.8143 35.0979 38.3771 36.5968L38.2522 37.0236L37.8047 36.9715C35.2858 36.6593 32.8501 36.2429 30.5602 35.7121L29.6963 35.5143L30.2792 34.8481ZM24.2006 49.389C24.492 45.3297 25.7931 41.3744 27.9685 37.9291L28.1767 37.6064L28.5514 37.7001C31.216 38.3767 34.0887 38.9179 37.1072 39.3031L37.6694 39.3759L37.5548 39.938C36.9303 42.9565 36.5764 46.1519 36.4828 49.4411V49.9511H24.1693L24.211 49.389H24.2006ZM28.1767 64.7105L27.9685 64.3878C25.7931 60.953 24.492 56.9873 24.2006 52.9279L24.1589 52.3659H36.4619V52.8759C36.566 56.165 36.9303 59.3709 37.5445 62.379L37.6589 62.941L37.0968 63.0139C34.0887 63.399 31.2056 63.9403 28.541 64.6169L28.1663 64.7105H28.1767ZM41.6142 74.8485C37.2322 73.4954 33.3185 70.9453 30.2792 67.4792L29.6963 66.8131L30.5602 66.6153C32.8501 66.0949 35.2858 65.6681 37.8047 65.3558L38.2522 65.3038L38.3771 65.7306C38.8143 67.2294 39.3139 68.6242 39.8656 69.8732C40.5629 71.4657 41.3436 72.8605 42.1971 74.0367L43.1443 75.3273L41.6142 74.8589V74.8485ZM48.9315 75.7541C45.8922 75.7541 42.8008 71.8925 40.8752 65.6785L40.6774 65.0436L41.3331 64.9916C46.2981 64.596 51.5857 64.6064 56.509 65.0332L57.1647 65.0852L56.9669 65.7098C55.0309 71.8925 51.95 75.7437 48.9315 75.7437V75.7541ZM67.4796 67.5833C64.4611 70.9973 60.5683 73.5058 56.2487 74.8485L54.7291 75.3169L55.6659 74.0367C56.5194 72.8709 57.3 71.4657 57.9974 69.8732C58.549 68.593 59.0487 67.2294 59.465 65.8034L59.5899 65.3663L60.0375 65.4287C62.5356 65.7514 64.9504 66.1885 67.2091 66.7194L68.0625 66.9276L67.4796 67.5833ZM73.652 52.9279C73.3606 57.0289 72.0387 61.0363 69.8112 64.5127L69.603 64.8354L69.2283 64.7418C66.595 64.0444 63.7325 63.4927 60.7349 63.0868L60.1728 63.0139L60.2873 62.4623C60.9118 59.4438 61.2761 56.2275 61.3698 52.8863V52.3763H73.6832L73.6416 52.9383L73.652 52.9279ZM61.3906 49.9511V49.4411C61.2865 46.0999 60.9222 42.8732 60.2977 39.8651L60.1832 39.3135L60.7453 39.2406C63.743 38.8347 66.5949 38.283 69.2387 37.5856L69.6135 37.492L69.8216 37.8146C72.049 41.2911 73.3813 45.288 73.6624 49.3994L73.704 49.9615H61.401L61.3906 49.9511Z" fill="#478BF9"/>
</g>
</g>
<g id="Group_3">
<path id="Vector_8" d="M0.484375 172.357V52.7616C0.484375 51.7728 1.28586 50.9817 2.26427 50.9817C3.24269 50.9817 4.04417 51.7832 4.04417 52.7616V172.357C4.04417 173.346 3.24269 174.137 2.26427 174.137C1.28586 174.137 0.484375 173.335 0.484375 172.357Z" fill="#478BF9"/>
</g>
<g id="Group_4">
<path id="Vector_9" d="M96.0352 172.628V53.0323C96.0352 52.0435 96.8366 51.2524 97.815 51.2524C98.7934 51.2524 99.5949 52.0539 99.5949 53.0323V172.628C99.5949 173.616 98.7934 174.407 97.815 174.407C96.8366 174.407 96.0352 173.606 96.0352 172.628Z" fill="#478BF9"/>
</g>
</g>
</svg>
