<svg width="16" height="16" viewBox="0 0 16 16" fill="none" xmlns="http://www.w3.org/2000/svg">
<g id="Instagram">
<path id="Vector" d="M8 1.5C9.76605 1.5 9.9864 1.5065 10.6793 1.539C11.3715 1.5715 11.8428 1.68005 12.2575 1.84125C12.6865 2.00635 13.0479 2.22995 13.4093 2.5907C13.7398 2.91563 13.9956 3.30868 14.1587 3.7425C14.3193 4.15655 14.4285 4.62845 14.461 5.3207C14.4915 6.0136 14.5 6.23395 14.5 8C14.5 9.76605 14.4935 9.9864 14.461 10.6793C14.4285 11.3715 14.3193 11.8428 14.1587 12.2575C13.996 12.6916 13.7402 13.0847 13.4093 13.4093C13.0843 13.7397 12.6912 13.9954 12.2575 14.1587C11.8434 14.3193 11.3715 14.4285 10.6793 14.461C9.9864 14.4915 9.76605 14.5 8 14.5C6.23395 14.5 6.0136 14.4935 5.3207 14.461C4.62845 14.4285 4.1572 14.3193 3.7425 14.1587C3.30851 13.9959 2.91539 13.7401 2.5907 13.4093C2.26011 13.0844 2.00436 12.6914 1.84125 12.2575C1.68005 11.8434 1.5715 11.3715 1.539 10.6793C1.50845 9.9864 1.5 9.76605 1.5 8C1.5 6.23395 1.5065 6.0136 1.539 5.3207C1.5715 4.6278 1.68005 4.1572 1.84125 3.7425C2.0039 3.30842 2.25972 2.91526 2.5907 2.5907C2.91549 2.26 3.30858 2.00422 3.7425 1.84125C4.1572 1.68005 4.6278 1.5715 5.3207 1.539C6.0136 1.50845 6.23395 1.5 8 1.5ZM8 4.75C7.13805 4.75 6.3114 5.09241 5.7019 5.7019C5.09241 6.3114 4.75 7.13805 4.75 8C4.75 8.86195 5.09241 9.6886 5.7019 10.2981C6.3114 10.9076 7.13805 11.25 8 11.25C8.86195 11.25 9.6886 10.9076 10.2981 10.2981C10.9076 9.6886 11.25 8.86195 11.25 8C11.25 7.13805 10.9076 6.3114 10.2981 5.7019C9.6886 5.09241 8.86195 4.75 8 4.75ZM12.225 4.5875C12.225 4.37201 12.1394 4.16535 11.987 4.01298C11.8347 3.8606 11.628 3.775 11.4125 3.775C11.197 3.775 10.9903 3.8606 10.838 4.01298C10.6856 4.16535 10.6 4.37201 10.6 4.5875C10.6 4.80299 10.6856 5.00965 10.838 5.16202C10.9903 5.3144 11.197 5.4 11.4125 5.4C11.628 5.4 11.8347 5.3144 11.987 5.16202C12.1394 5.00965 12.225 4.80299 12.225 4.5875ZM8 6.05C8.51717 6.05 9.01316 6.25545 9.37886 6.62114C9.74455 6.98684 9.95 7.48283 9.95 8C9.95 8.51717 9.74455 9.01316 9.37886 9.37886C9.01316 9.74455 8.51717 9.95 8 9.95C7.48283 9.95 6.98684 9.74455 6.62114 9.37886C6.25545 9.01316 6.05 8.51717 6.05 8C6.05 7.48283 6.25545 6.98684 6.62114 6.62114C6.98684 6.25545 7.48283 6.05 8 6.05Z" fill="#110A1D"/>
</g>
</svg>
