<svg width="16" height="16" viewBox="0 0 16 16" fill="none" xmlns="http://www.w3.org/2000/svg">
<g id="LinkedIn">
<path id="Vector" d="M1.875 2.75241C1.875 2.26777 2.27772 1.875 2.77461 1.875H13.2254C13.7223 1.875 14.125 2.26777 14.125 2.75241V13.2476C14.125 13.7322 13.7223 14.125 13.2254 14.125H2.77461C2.27772 14.125 1.875 13.7322 1.875 13.2476V2.75241ZM5.65948 12.1298V6.59814H3.82122V12.1298H5.65948ZM4.74073 5.84247C5.38156 5.84247 5.78045 5.41831 5.78045 4.88697C5.76897 4.34414 5.38233 3.93147 4.75298 3.93147C4.12364 3.93147 3.7125 4.34491 3.7125 4.88697C3.7125 5.41831 4.11139 5.84247 4.72848 5.84247H4.74073ZM8.49842 12.1298V9.04048C8.49842 8.87511 8.51067 8.70973 8.55967 8.59183C8.69212 8.26184 8.99455 7.91961 9.50292 7.91961C10.1683 7.91961 10.4339 8.42645 10.4339 9.17064V12.1298H12.2722V8.95703C12.2722 7.25734 11.3657 6.46722 10.156 6.46722C9.18059 6.46722 8.74342 7.00316 8.49842 7.38061V7.39975H8.48617C8.49024 7.39336 8.49432 7.38698 8.49842 7.38061V6.59814H6.66092C6.68389 7.11723 6.66092 12.1298 6.66092 12.1298H8.49842Z" fill="#110A1D"/>
</g>
</svg>
