<svg width="16" height="16" viewBox="0 0 16 16" fill="none" xmlns="http://www.w3.org/2000/svg">
<g id="Telegram">
<path id="Vector" d="M12.6437 3.13212C12.6437 3.13212 13.7768 2.69025 13.682 3.76329C13.6508 4.20516 13.3676 5.75187 13.1471 7.42458L12.3917 12.38C12.3917 12.38 12.3287 13.106 11.762 13.2322C11.1956 13.3582 10.3457 12.7904 10.1882 12.6641C10.0622 12.5693 7.82742 11.1489 7.0405 10.4547C6.82 10.2651 6.568 9.88654 7.072 9.44466L10.3769 6.28825C10.7546 5.90966 11.1323 5.02591 9.55846 6.09896L5.15138 9.09729C5.15138 9.09729 4.64767 9.41316 3.70354 9.12908L1.65721 8.49762C1.65721 8.49762 0.901794 8.02425 2.19242 7.55087C5.34038 6.06746 9.21225 4.55254 12.6431 3.13212H12.6437Z" fill="#110A1D"/>
</g>
</svg>
