<svg width="16" height="16" viewBox="0 0 16 16" fill="none" xmlns="http://www.w3.org/2000/svg">
<g id="TikTok">
<g id="Vector">
<path id="Vector_2" fill-rule="evenodd" clip-rule="evenodd" d="M9.0125 1.9248C9.38529 1.9248 9.6875 2.22701 9.6875 2.5998C9.6875 3.31589 9.97197 4.00265 10.4783 4.50899C10.9847 5.01534 11.6714 5.29981 12.3875 5.29981C12.7603 5.29981 13.0625 5.60201 13.0625 5.9748C13.0625 6.3476 12.7603 6.64981 12.3875 6.64981C11.3887 6.64981 10.428 6.28088 9.6875 5.6185V10.6998C9.6875 11.3673 9.48956 12.0198 9.11871 12.5749C8.74786 13.1299 8.22076 13.5625 7.60406 13.8179C6.98736 14.0733 6.30876 14.1402 5.65407 14.01C4.99939 13.8797 4.39802 13.5583 3.92602 13.0863C3.45401 12.6143 3.13258 12.0129 3.00235 11.3582C2.87213 10.7035 2.93896 10.0249 3.19441 9.40825C3.44985 8.79155 3.88244 8.26445 4.43745 7.8936C4.99247 7.52275 5.64499 7.32481 6.3125 7.32481C6.68529 7.32481 6.9875 7.62701 6.9875 7.99981C6.9875 8.3726 6.68529 8.67481 6.3125 8.67481C5.91199 8.67481 5.52048 8.79357 5.18747 9.01608C4.85446 9.23859 4.59491 9.55485 4.44165 9.92487C4.28838 10.2949 4.24828 10.7021 4.32641 11.0949C4.40455 11.4877 4.59741 11.8485 4.88061 12.1317C5.16381 12.4149 5.52463 12.6078 5.91744 12.6859C6.31026 12.764 6.71742 12.7239 7.08744 12.5707C7.45746 12.4174 7.77372 12.1578 7.99623 11.8248C8.21874 11.4918 8.3375 11.1003 8.3375 10.6998V2.5998C8.3375 2.22701 8.63971 1.9248 9.0125 1.9248Z" fill="#110A1D"/>
</g>
</g>
</svg>
