<svg width="16" height="16" viewBox="0 0 16 16" fill="none" xmlns="http://www.w3.org/2000/svg">
<g id="Twitter">
<g id="Vector">
<path id="Vector_2" d="M13.3116 5.5386V5.91283C13.3116 9.68139 10.5585 14.0001 5.52064 14.0001C4.03341 14.0034 2.57777 13.5546 1.33325 12.709C1.54939 12.7394 1.76741 12.7532 1.9855 12.7501C3.2183 12.7536 4.41643 12.3266 5.38731 11.5376C4.81458 11.5288 4.25908 11.3328 3.79976 10.9774C3.34044 10.622 3.00067 10.1253 2.82875 9.55789C2.99935 9.59545 3.17328 9.61426 3.34767 9.61402C3.59118 9.61408 3.8336 9.58009 4.06839 9.51298C3.44806 9.38456 2.88998 9.03625 2.48965 8.52766C2.08932 8.01907 1.87161 7.38181 1.87379 6.72493V6.6875C2.25332 6.90767 2.67883 7.02842 3.11343 7.03928C2.53491 6.64393 2.12359 6.03408 1.96351 5.33434C1.80344 4.63461 1.90669 3.8978 2.25217 3.27447C2.94055 4.15374 3.79941 4.87271 4.77291 5.38465C5.74641 5.89658 6.81275 6.19003 7.90262 6.2459C7.84867 6.0335 7.82321 5.81437 7.82695 5.59473C7.80665 5.01426 7.95913 4.4414 8.2636 3.95414C8.56807 3.46689 9.00975 3.08893 9.52849 2.87173C10.0472 2.65452 10.6178 2.60863 11.1626 2.7403C11.7074 2.87196 12.1998 3.17479 12.5729 3.60754C13.1861 3.47902 13.7744 3.24502 14.3134 2.91521C14.109 3.5856 13.6742 4.15442 13.0918 4.51319C13.6358 4.43535 14.1662 4.27654 14.6666 4.04166C14.3039 4.62009 13.8451 5.12696 13.3116 5.5386Z" fill="#110A1D"/>
</g>
</g>
</svg>
