<svg width="16" height="16" viewBox="0 0 16 16" fill="none" xmlns="http://www.w3.org/2000/svg">
<g id="VK">
<g id="Vector">
<g id="Vector_2">
<path fill-rule="evenodd" clip-rule="evenodd" d="M1.31137 4.54035C1.37193 4.45212 1.46882 4.3999 1.57195 4.3999H3.78376C3.90777 4.3999 4.02076 4.47519 4.07424 4.59345C4.20876 4.89094 4.3395 5.19186 4.46885 5.48956C4.76915 6.18075 5.0619 6.85456 5.37691 7.42766C5.60015 7.8338 5.82287 8.16627 6.05001 8.40235C6.14614 8.50227 6.23943 8.58119 6.33039 8.64085V5.82015L5.66793 4.95414C5.58994 4.85217 5.57431 4.7119 5.62776 4.59357C5.68121 4.47524 5.79423 4.3999 5.91829 4.3999H8.99293C9.17074 4.3999 9.31488 4.55225 9.31488 4.74019V7.9274C9.68263 7.54399 9.9704 7.10703 10.2332 6.63856C10.3845 6.3689 10.5247 6.09411 10.6684 5.81235C10.7032 5.74424 10.7381 5.67572 10.7735 5.60677C10.9534 5.25619 11.142 4.89842 11.3578 4.55278C11.4173 4.45733 11.5183 4.3999 11.6265 4.3999H13.7449C13.8448 4.3999 13.9391 4.44891 14 4.53256C14.061 4.61621 14.0817 4.72503 14.0562 4.82711C13.6506 6.44996 12.8611 7.58348 12.1084 8.66435C12.0786 8.70704 12.049 8.74966 12.0194 8.79221C13.0413 9.75879 13.8603 10.9427 14.4219 12.2677C14.4665 12.373 14.4576 12.495 14.3983 12.5919C14.3389 12.6887 14.2372 12.7471 14.128 12.7471H11.7971C11.7199 12.7471 11.6453 12.7178 11.5868 12.6645C11.3405 12.4399 11.1286 12.1942 10.9333 11.9593C10.8933 11.9112 10.8543 11.8638 10.8158 11.8172C10.6622 11.631 10.5179 11.4561 10.3626 11.2915C10.065 10.976 9.74511 10.7185 9.31488 10.5742V12.4069C9.31488 12.5782 9.1943 12.7229 9.03345 12.7444C6.41928 13.095 4.66121 11.7367 3.47696 9.99732C2.33877 8.32559 1.70433 6.2678 1.30257 4.96468C1.29012 4.9243 1.2779 4.88466 1.26589 4.84577C1.23389 4.74214 1.2508 4.62858 1.31137 4.54035ZM2.01594 5.08048C2.42013 6.37792 3.01304 8.15076 3.9996 9.59979C5.04888 11.1409 6.51702 12.2816 8.67098 12.1001V10.1473C8.67098 10.0481 8.71194 9.95388 8.78313 9.88923C8.85433 9.82459 8.94867 9.796 9.04145 9.81095C9.84935 9.94114 10.3812 10.3473 10.8186 10.811C10.9906 10.9934 11.1527 11.1899 11.3075 11.3776C11.3444 11.4224 11.3809 11.4666 11.417 11.51C11.5818 11.7082 11.7436 11.8957 11.9196 12.0666H13.6159C13.0631 10.9341 12.3028 9.92685 11.3774 9.10451C11.2481 8.98959 11.2249 8.78857 11.3241 8.64409C11.4125 8.51555 11.5007 8.38858 11.5885 8.26236C12.2699 7.28221 12.9196 6.34769 13.314 5.08048H11.8021C11.6395 5.35381 11.4898 5.63825 11.3396 5.93118C11.3058 5.99698 11.2719 6.06336 11.2379 6.13016C11.0936 6.41292 10.9457 6.7029 10.7871 6.98566C10.3922 7.68961 9.91397 8.38129 9.17971 8.93406C9.08154 9.00796 8.95254 9.01773 8.84542 8.95936C8.73829 8.901 8.67098 8.78428 8.67098 8.65689V5.08048H6.59261L6.9027 5.48585C6.94902 5.54641 6.97429 5.62193 6.97429 5.6998V9.11968C6.97429 9.21677 6.93506 9.30924 6.86645 9.37381C6.79785 9.43838 6.70642 9.4689 6.61518 9.4577C6.22148 9.40934 5.88503 9.18537 5.59854 8.88762C5.31247 8.59029 5.05609 8.1988 4.82014 7.76954C4.48888 7.16686 4.17473 6.44394 3.8684 5.73901C3.7716 5.51625 3.67558 5.29528 3.58004 5.08048H2.01594Z" fill="#110A1D"/>
<path d="M3.9996 9.59979C3.01304 8.15076 2.42013 6.37792 2.01594 5.08048H3.58004C3.67558 5.29528 3.7716 5.51625 3.8684 5.73901C4.17473 6.44394 4.48888 7.16686 4.82014 7.76954C5.05609 8.1988 5.31247 8.59029 5.59854 8.88762C5.88503 9.18537 6.22148 9.40934 6.61518 9.4577C6.70642 9.4689 6.79785 9.43838 6.86645 9.37381C6.93506 9.30924 6.97429 9.21677 6.97429 9.11968V5.6998C6.97429 5.62193 6.94902 5.54641 6.9027 5.48585L6.59261 5.08048H8.67098V8.65689C8.67098 8.78428 8.73829 8.901 8.84542 8.95936C8.95254 9.01773 9.08154 9.00796 9.17971 8.93406C9.91397 8.38129 10.3922 7.68961 10.7871 6.98566C10.9457 6.7029 11.0936 6.41292 11.2379 6.13016C11.2719 6.06336 11.3058 5.99698 11.3396 5.93118C11.4898 5.63825 11.6395 5.35381 11.8021 5.08048H13.314C12.9196 6.34769 12.2699 7.28221 11.5885 8.26236C11.5007 8.38858 11.4125 8.51555 11.3241 8.64409C11.2249 8.78857 11.2481 8.98959 11.3774 9.10451C12.3028 9.92685 13.0631 10.9341 13.6159 12.0666H11.9196C11.7436 11.8957 11.5818 11.7082 11.417 11.51C11.3809 11.4666 11.3444 11.4224 11.3075 11.3776C11.1527 11.1899 10.9906 10.9934 10.8186 10.811C10.3812 10.3473 9.84935 9.94114 9.04145 9.81095C8.94867 9.796 8.85433 9.82459 8.78313 9.88923C8.71194 9.95388 8.67098 10.0481 8.67098 10.1473V12.1001C6.51702 12.2816 5.04888 11.1409 3.9996 9.59979Z" fill="#110A1D"/>
</g>
</g>
</g>
</svg>
