<svg width="16" height="16" viewBox="0 0 16 16" fill="none" xmlns="http://www.w3.org/2000/svg">
<g id="YouTube">
<path id="Vector" d="M6.66659 9.99992L10.1266 7.99992L6.66659 5.99992V9.99992ZM14.3733 4.77992C14.4599 5.09325 14.5199 5.51325 14.5599 6.04659C14.6066 6.57992 14.6266 7.03992 14.6266 7.43992L14.6666 7.99992C14.6666 9.45992 14.5599 10.5333 14.3733 11.2199C14.2066 11.8199 13.8199 12.2066 13.2199 12.3733C12.9066 12.4599 12.3333 12.5199 11.4533 12.5599C10.5866 12.6066 9.79325 12.6266 9.05992 12.6266L7.99992 12.6666C5.20659 12.6666 3.46659 12.5599 2.77992 12.3733C2.17992 12.2066 1.79325 11.8199 1.62659 11.2199C1.53992 10.9066 1.47992 10.4866 1.43992 9.95325C1.39325 9.41992 1.37325 8.95992 1.37325 8.55992L1.33325 7.99992C1.33325 6.53992 1.43992 5.46659 1.62659 4.77992C1.79325 4.17992 2.17992 3.79325 2.77992 3.62659C3.09325 3.53992 3.66659 3.47992 4.54659 3.43992C5.41325 3.39325 6.20659 3.37325 6.93992 3.37325L7.99992 3.33325C10.7933 3.33325 12.5333 3.43992 13.2199 3.62659C13.8199 3.79325 14.2066 4.17992 14.3733 4.77992Z" fill="#1E1231"/>
</g>
</svg>
