<svg width="110" height="50" viewBox="0 0 110 50" fill="none" xmlns="http://www.w3.org/2000/svg">
<g id="$">
<g id="Group">
<path id="Vector" d="M84.9487 1.00835C98.4546 1.00835 109.445 11.9983 109.445 25.5042C109.445 39.0101 98.4546 50 84.9487 50C71.4428 50 60.4529 39.0101 60.4529 25.5042C60.4529 11.9983 71.4428 1.00835 84.9487 1.00835ZM84.9487 48.2352C97.4822 48.2352 107.68 38.0376 107.68 25.5042C107.68 12.9707 97.4822 2.77312 84.9487 2.77312C72.4152 2.77312 62.2176 12.9707 62.2176 25.5042C62.2176 38.0376 72.4152 48.2352 84.9487 48.2352Z" fill="#478BF9"/>
<path id="Vector_2" d="M25.07 1.00694C25.5588 1.00694 25.9499 1.40309 25.9499 1.88673C25.9499 2.37037 25.5537 2.76655 25.07 2.76655C12.5366 2.76655 2.33898 12.9641 2.33898 25.4976C2.33898 38.0311 12.5366 48.2287 25.07 48.2287C25.5588 48.2287 25.9499 48.6248 25.9499 49.1085C25.9499 49.5921 25.5537 49.9883 25.07 49.9883C11.5641 49.9883 0.574219 38.9984 0.574219 25.4925C0.574219 11.9866 11.5641 0.996635 25.07 0.996635V1.00694Z" fill="#478BF9"/>
<g id="Group_2">
<path id="Vector_3" d="M80.2358 21.1715C80.2358 22.0719 80.8481 22.8539 81.7228 23.07L83.3846 23.4868V19.2112H82.2013C81.1208 19.2112 80.241 20.091 80.241 21.1715H80.2358Z" fill="#478BF9"/>
<path id="Vector_4" d="M86.5222 31.7858H87.7056C88.7861 31.7858 89.6659 30.906 89.6659 29.8256C89.6659 28.9252 89.0536 28.1431 88.1789 27.927L86.5171 27.5103V31.7858H86.5222Z" fill="#478BF9"/>
<path id="Vector_5" d="M84.9539 5.56665C73.9639 5.56665 65.0166 14.5088 65.0166 25.5039C65.0166 36.499 73.9588 45.4412 84.9539 45.4412C95.949 45.4412 104.891 36.499 104.891 25.5039C104.891 14.5088 95.949 5.56665 84.9539 5.56665ZM92.8156 22.3551H89.6719V20.7807C89.6719 19.9163 88.967 19.2063 88.0975 19.2063H86.5231V24.2691L88.9465 24.8762C91.2206 25.4473 92.8105 27.4797 92.8105 29.8258C92.8105 32.6402 90.5209 34.9298 87.7065 34.9298H86.5231V38.9121H83.3795V34.9298H81.8051C79.2017 34.9298 77.087 32.8151 77.087 30.2117V28.6373H80.2307V30.2117C80.2307 31.0761 80.9355 31.7861 81.8051 31.7861H83.3795V26.7233L80.9561 26.1162C78.682 25.5451 77.0922 23.5128 77.0922 21.1666C77.0922 18.3522 79.3817 16.0627 82.1961 16.0627H83.3795V12.0804H86.5231V16.0627H88.0975C90.7009 16.0627 92.8156 18.1773 92.8156 20.7807V22.3551Z" fill="#478BF9"/>
</g>
</g>
<g id="Group_3">
<path id="Vector_6" d="M24.6945 0.977932L83.8117 0.977932C84.3005 0.977932 84.6915 1.37409 84.6915 1.85772C84.6915 2.34136 84.2954 2.73755 83.8117 2.73755L24.6945 2.73755C24.2057 2.73755 23.8147 2.34136 23.8147 1.85772C23.8147 1.37409 24.2109 0.977932 24.6945 0.977932Z" fill="#478BF9"/>
</g>
<g id="Group_4">
<path id="Vector_7" d="M24.5656 48.2021L83.6828 48.2021C84.1716 48.2021 84.5626 48.5982 84.5626 49.0819C84.5626 49.5655 84.1665 49.9617 83.6828 49.9617L24.5656 49.9617C24.0768 49.9617 23.6858 49.5655 23.6858 49.0819C23.6858 48.5982 24.0819 48.2021 24.5656 48.2021Z" fill="#478BF9"/>
</g>
</g>
</svg>
