<svg width="20" height="20" viewBox="0 0 20 20" fill="none" xmlns="http://www.w3.org/2000/svg">
<g id="Icon - Planet" clip-path="url(#clip0_1585_504)">
<g id="Union">
<path d="M17.7115 4.6486C15.9987 2.30028 13.7515 0.968835 10.7944 0.625C12.1778 2.22713 13.1293 3.96093 13.7369 5.89958C15.1203 5.61427 16.4305 5.24117 17.7115 4.6486Z" fill="#9DADF2"/>
<path d="M5.31257 6.9036C4.78751 6.76628 4.27746 6.63289 3.77486 6.47753C3.32573 6.33258 2.88257 6.1667 2.43966 6.00092C2.18962 5.90733 1.93967 5.81377 1.68876 5.72402C0.202865 8.3357 0.341938 12.0447 1.68144 14.2321C2.42998 13.9969 3.17243 13.7616 3.92163 13.5243L3.923 13.5238C4.59448 13.3111 5.27181 13.0965 5.96344 12.8787C5.56818 10.9766 5.5755 9.01606 5.97076 7.07741C5.74843 7.01759 5.52921 6.96025 5.31257 6.9036Z" fill="#9DADF2"/>
<path d="M16.1823 6.44809C15.4687 6.67486 14.7544 6.90184 14.0371 7.12861C14.4324 9.04531 14.4177 10.9913 14.0371 12.8714C15.4864 13.3323 16.8991 13.7785 18.3264 14.2248C19.7318 11.8179 19.7172 8.16011 18.3264 5.7679C17.6093 5.99463 16.8958 6.22136 16.1823 6.44809Z" fill="#9DADF2"/>
<path d="M7.14925 12.7836C6.73935 10.9254 6.75399 9.10383 7.12729 7.28224C7.42576 7.29979 7.71897 7.32062 8.00849 7.3412C8.6845 7.38924 9.34069 7.43587 9.9966 7.43587C10.6525 7.43587 11.3084 7.38926 11.9843 7.34122C12.2738 7.32065 12.5675 7.29978 12.8659 7.28224C13.2685 9.07457 13.2539 10.9108 12.8586 12.7763C10.9408 12.5276 9.067 12.5129 7.14925 12.7836Z" fill="#9DADF2"/>
<path d="M17.7116 15.3441C16.0134 17.6924 13.759 19.0165 10.8018 19.375C12.1633 17.7802 13.1368 16.0537 13.7297 14.1077C15.1058 14.3711 16.4087 14.7661 17.7116 15.3441Z" fill="#9DADF2"/>
<path d="M9.19867 0.625C6.24152 0.976151 3.98706 2.3076 2.23034 4.72907C3.60644 5.15338 4.90202 5.55574 6.24152 5.97273C6.86369 3.9463 7.82989 2.22713 9.19867 0.625Z" fill="#9DADF2"/>
<path d="M9.19867 19.375C6.24884 19.0238 4.0017 17.6997 2.23034 15.2709C2.66907 15.1356 3.0996 15.0026 3.52599 14.8708L3.52785 14.8703C4.43821 14.5889 5.32971 14.3134 6.24152 14.0346C6.86369 16.0391 7.81525 17.7729 9.19867 19.375Z" fill="#9DADF2"/>
<path d="M12.551 6.07516C12.002 4.35599 11.1602 2.85628 9.99639 1.49557C8.82524 2.87823 7.97616 4.37062 7.44914 6.07516C9.16927 6.30195 10.8382 6.30926 12.551 6.07516Z" fill="#9DADF2"/>
<path d="M10.0037 18.5044C8.83988 17.151 7.99812 15.6513 7.44914 13.9321C9.15463 13.6907 10.8235 13.698 12.5583 13.9248C12.0093 15.6367 11.1675 17.1291 10.0037 18.5044Z" fill="#9DADF2"/>
</g>
</g>
<defs>
<clipPath id="clip0_1585_504">
<rect width="20" height="20" fill="white"/>
</clipPath>
</defs>
</svg>
