<svg width="109" height="50" viewBox="0 0 109 50" fill="none" xmlns="http://www.w3.org/2000/svg">
<g id="World">
<g id="Group">
<path id="Vector" d="M24.5844 49.3894C11.0786 49.3894 0.088623 38.3994 0.088623 24.8935C0.088623 11.3877 11.0786 0.397724 24.5844 0.397724C38.0903 0.397724 49.0803 11.3877 49.0803 24.8935C49.0803 38.3994 38.0903 49.3894 24.5844 49.3894ZM24.5844 2.16249C12.051 2.16249 1.85339 12.3601 1.85339 24.8935C1.85339 37.427 12.051 47.6246 24.5844 47.6246C37.1179 47.6246 47.3155 37.427 47.3155 24.8935C47.3155 12.3601 37.1179 2.16249 24.5844 2.16249Z" fill="#478BF9"/>
<path id="Vector_2" d="M84.4682 49.3906C83.9794 49.3906 83.5884 48.9944 83.5884 48.5108C83.5884 48.0271 83.9846 47.631 84.4682 47.631C97.0017 47.631 107.199 37.4334 107.199 24.8999C107.199 12.3664 97.0017 2.16885 84.4682 2.16885C83.9794 2.16885 83.5884 1.77266 83.5884 1.28902C83.5884 0.805386 83.9846 0.409233 84.4682 0.409233C97.9741 0.409233 108.964 11.3992 108.964 24.9051C108.964 38.4109 97.9741 49.4009 84.4682 49.4009V49.3906Z" fill="#478BF9"/>
<g id="Group_2">
<path id="Vector_3" d="M48.8818 23.9211H38.1543V26.0358H48.8818V23.9211Z" fill="#478BF9"/>
<path id="Vector_4" d="M11.9456 23.9211H1.21802V26.0358H11.9456V23.9211Z" fill="#478BF9"/>
<path id="Vector_5" d="M26.2755 38.2451H24.1609V48.9727H26.2755V38.2451Z" fill="#478BF9"/>
<path id="Vector_6" d="M26.2755 0.984131H24.1609V11.7117H26.2755V0.984131Z" fill="#478BF9"/>
<path id="Vector_7" d="M37.8303 11.5574C30.4934 4.22046 18.5928 4.22046 11.2507 11.5574C3.91382 18.8943 3.91382 30.7949 11.2507 38.137C18.5876 45.4739 30.4883 45.4739 37.8303 38.137C45.1673 30.8001 45.1673 18.8994 37.8303 11.5574ZM28.173 13.1472C30.3133 13.8109 32.2325 15.0509 33.7245 16.7385L34.0127 17.0626L33.5908 17.1604C32.4743 17.4228 31.2806 17.6389 30.0458 17.7984L29.8246 17.8293L29.7628 17.6132C29.557 16.9083 29.3152 16.2291 29.0374 15.6014C28.6926 14.8142 28.3068 14.1248 27.8849 13.5434L27.4218 12.9105L28.173 13.1421V13.1472ZM19.5858 24.2606L19.5961 23.9931C19.6476 22.3672 19.8276 20.8134 20.1363 19.3831L20.1827 19.1567L20.4142 19.1773C23.1205 19.4139 26.0121 19.4037 28.7029 19.1516L28.9344 19.131L28.9859 19.3574C29.2998 20.8031 29.4798 22.3621 29.5261 23.9931V24.2606H19.591H19.5858ZM29.5261 25.4543V25.7219C29.4696 27.3529 29.2895 28.9118 28.9756 30.3576L28.9242 30.584L28.6926 30.5634C26.0018 30.3113 23.1102 30.3061 20.4039 30.5377L20.1724 30.5582L20.126 30.3318C19.8173 28.9015 19.6373 27.3529 19.5858 25.7219L19.5755 25.4543H29.5158H29.5261ZM24.556 12.6996C26.0532 12.6996 27.5762 14.5981 28.528 17.6595L28.6258 17.9682L28.3016 17.9939C27.0359 18.1019 25.7291 18.1585 24.4171 18.1585C23.1977 18.1585 21.9834 18.1122 20.8 18.0145L20.4759 17.9888L20.5737 17.6749C21.5255 14.6033 23.0536 12.6945 24.556 12.6945V12.6996ZM15.3359 16.7951C16.8383 15.0818 18.7729 13.8212 20.939 13.1524L21.6953 12.9208L21.2271 13.5588C20.8052 14.1351 20.4142 14.8297 20.0746 15.6117C19.8019 16.2291 19.5549 16.9186 19.3389 17.6595L19.2771 17.8704L19.0559 17.8447C17.8108 17.6904 16.6068 17.4845 15.4749 17.2221L15.0478 17.1244L15.3359 16.7951ZM12.3312 23.9828C12.4753 21.9762 13.1184 20.0211 14.1937 18.318L14.2967 18.1585L14.4819 18.2048C15.799 18.5393 17.2191 18.8068 18.7111 18.9972L18.989 19.0332L18.9324 19.311C18.6237 20.8031 18.4487 22.3827 18.4024 24.0085V24.2606H12.3158L12.3364 23.9828H12.3312ZM14.2967 31.5564L14.1937 31.3969C13.1184 29.699 12.4753 27.7387 12.3312 25.7321L12.3106 25.4543H18.3921V25.7064C18.4436 27.3323 18.6237 28.917 18.9272 30.4039L18.9838 30.6817L18.706 30.7177C17.219 30.9081 15.7939 31.1757 14.4767 31.5101L14.2915 31.5564H14.2967ZM20.939 36.5677C18.7729 35.8988 16.8383 34.6383 15.3359 32.925L15.0478 32.5957L15.4749 32.4979C16.6068 32.2407 17.8108 32.0297 19.0559 31.8754L19.2771 31.8497L19.3389 32.0606C19.5549 32.8015 19.8019 33.491 20.0746 34.1084C20.4193 34.8956 20.8052 35.585 21.2271 36.1664L21.6953 36.8044L20.939 36.5729V36.5677ZM24.556 37.0153C23.0536 37.0153 21.5255 35.1065 20.5737 32.0349L20.4759 31.721L20.8 31.6953C23.2543 31.4998 25.868 31.5049 28.3016 31.7159L28.6258 31.7416L28.528 32.0503C27.571 35.1065 26.0481 37.0102 24.556 37.0102V37.0153ZM33.7245 32.9764C32.2325 34.664 30.3082 35.904 28.173 36.5677L27.4218 36.7992L27.8849 36.1664C28.3068 35.5902 28.6926 34.8956 29.0374 34.1084C29.31 33.4755 29.557 32.8015 29.7628 32.0966L29.8246 31.8805L30.0458 31.9114C31.2806 32.0709 32.4743 32.287 33.5908 32.5494L34.0127 32.6523L33.7245 32.9764ZM36.7756 25.7321C36.6315 27.7593 35.9781 29.7402 34.8771 31.4586L34.7742 31.6181L34.5889 31.5718C33.2872 31.2271 31.8723 30.9544 30.3905 30.7537L30.1127 30.7177L30.1693 30.4451C30.478 28.953 30.6581 27.3631 30.7044 25.7116V25.4594H36.791L36.7705 25.7373L36.7756 25.7321ZM30.7147 24.2606V24.0085C30.6632 22.3569 30.4831 20.762 30.1744 19.275L30.1178 19.0024L30.3957 18.9663C31.8775 18.7657 33.2872 18.493 34.5941 18.1482L34.7793 18.102L34.8822 18.2615C35.9832 19.9799 36.6418 21.9556 36.7807 23.988L36.8013 24.2658H30.7198L30.7147 24.2606Z" fill="#478BF9"/>
</g>
</g>
<g id="Group_3">
<path id="Vector_8" d="M84.8386 49.4202L25.7214 49.4202C25.2326 49.4202 24.8416 49.024 24.8416 48.5403C24.8416 48.0567 25.2377 47.6605 25.7214 47.6605L84.8386 47.6605C85.3274 47.6605 85.7184 48.0567 85.7184 48.5403C85.7184 49.024 85.3222 49.4202 84.8386 49.4202Z" fill="#478BF9"/>
</g>
<g id="Group_4">
<path id="Vector_9" d="M84.9726 2.18872L25.8554 2.18872C25.3666 2.18872 24.9756 1.79257 24.9756 1.30893C24.9756 0.825289 25.3718 0.429104 25.8554 0.429104L84.9726 0.429104C85.4614 0.429104 85.8524 0.825289 85.8524 1.30893C85.8524 1.79257 85.4562 2.18872 84.9726 2.18872Z" fill="#478BF9"/>
</g>
</g>
</svg>
